<?xml version="1.0" encoding="UTF-8"?>
<!DOCTYPE svg PUBLIC "-//W3C//DTD SVG 1.1//EN" "http://www.w3.org/Graphics/SVG/1.1/DTD/svg11.dtd">
<svg xmlns="http://www.w3.org/2000/svg" version="1.1" width="460px" height="460px" style="shape-rendering:geometricPrecision; text-rendering:geometricPrecision; image-rendering:optimizeQuality; fill-rule:evenodd; clip-rule:evenodd" xmlns:xlink="http://www.w3.org/1999/xlink">
<g><path style="opacity:0.999" fill="#42af29" d="M -0.5,-0.5 C 139.5,-0.5 279.5,-0.5 419.5,-0.5C 380.875,52.5707 341.875,105.404 302.5,158C 300.365,158.635 298.365,158.301 296.5,157C 284.656,144.155 273.156,130.988 262,117.5C 257.971,114.466 254.304,111.133 251,107.5C 249.395,108.101 248.062,109.101 247,110.5C 240.23,119.72 233.23,128.72 226,137.5C 223.541,140.07 222.541,143.07 223,146.5C 248.764,172.761 274.264,199.095 299.5,225.5C 300.768,226.428 302.101,226.595 303.5,226C 353.919,169.59 404.253,113.256 454.5,57C 456.197,56.6155 457.863,56.7822 459.5,57.5C 459.5,191.5 459.5,325.5 459.5,459.5C 306.167,459.5 152.833,459.5 -0.5,459.5C -0.5,306.167 -0.5,152.833 -0.5,-0.5 Z M 110.5,213.5 C 141.473,209.827 169.807,216.661 195.5,234C 197.741,235.952 199.741,238.118 201.5,240.5C 195.163,250.881 187.663,260.214 179,268.5C 169.716,262.44 159.883,257.273 149.5,253C 137.026,249.73 124.359,248.73 111.5,250C 101.966,251.204 95.7997,256.371 93,265.5C 92.2989,268.928 92.6323,272.262 94,275.5C 100.846,283.008 109.346,287.508 119.5,289C 138.395,292.522 156.729,297.855 174.5,305C 204.171,320.981 213.671,345.148 203,377.5C 191.855,400.522 173.355,413.355 147.5,416C 111.107,421.736 78.4405,413.402 49.5,391C 45.8132,387.804 45.6466,384.304 49,380.5C 54.8556,373.301 60.3556,365.801 65.5,358C 67.9712,357.294 70.3046,357.627 72.5,359C 77.588,364.049 83.2547,368.383 89.5,372C 105.069,379.114 121.402,382.114 138.5,381C 146.892,380.411 154.226,377.411 160.5,372C 167.971,361.901 166.971,352.901 157.5,345C 139.739,337.973 121.405,332.64 102.5,329C 89.3529,325.093 77.3529,319.093 66.5,311C 51.2308,293.91 47.3975,274.41 55,252.5C 57.4209,248.66 59.5875,244.66 61.5,240.5C 66.9911,235.177 72.6577,230.011 78.5,225C 88.7603,219.688 99.4269,215.854 110.5,213.5 Z M 290.5,263.5 C 314.658,260.49 335.824,266.823 354,282.5C 370.787,301.522 378.454,323.856 377,349.5C 376.5,350.667 375.667,351.5 374.5,352C 339.167,352.333 303.833,352.667 268.5,353C 268.043,353.414 267.709,353.914 267.5,354.5C 270.839,368.35 278.839,378.517 291.5,385C 303.813,388.193 316.146,388.193 328.5,385C 335.276,382.446 341.609,379.113 347.5,375C 348.5,374.333 349.5,374.333 350.5,375C 356.058,382.071 361.058,389.571 365.5,397.5C 353.63,407.431 339.963,413.598 324.5,416C 300.221,420.877 277.887,416.543 257.5,403C 231.174,380.684 222.007,352.517 230,318.5C 237.467,295.707 251.967,279.207 273.5,269C 279.227,266.993 284.893,265.159 290.5,263.5 Z"/></g>
<g><path style="opacity:0.988" fill="#41ac29" d="M 301.5,292.5 C 324.529,292.538 337.529,303.871 340.5,326.5C 316.167,326.5 291.833,326.5 267.5,326.5C 268.78,311.38 276.447,300.88 290.5,295C 294.312,294.205 297.979,293.371 301.5,292.5 Z"/></g>
</svg>
