<?xml version="1.0" encoding="UTF-8"?>
<!DOCTYPE svg PUBLIC "-//W3C//DTD SVG 1.1//EN" "http://www.w3.org/Graphics/SVG/1.1/DTD/svg11.dtd">
<svg xmlns="http://www.w3.org/2000/svg" version="1.1" width="1826px" height="1908px" style="shape-rendering:geometricPrecision; text-rendering:geometricPrecision; image-rendering:optimizeQuality; fill-rule:evenodd; clip-rule:evenodd" xmlns:xlink="http://www.w3.org/1999/xlink">
<g><path style="opacity:1" fill="#e0e1e1" d="M -0.5,-0.5 C 608.167,-0.5 1216.83,-0.5 1825.5,-0.5C 1825.5,0.166667 1825.5,0.833333 1825.5,1.5C 1774,1.16776 1722.66,1.5011 1671.5,2.5C 1118.14,1.16703 564.804,1.16703 11.5,2.5C 7.70159,1.51658 3.70159,1.18325 -0.5,1.5C -0.5,0.833333 -0.5,0.166667 -0.5,-0.5 Z"/></g>
<g><path style="opacity:1" fill="#fefefe" d="M -0.5,1.5 C 3.70159,1.18325 7.70159,1.51658 11.5,2.5C 7.49239,4.34223 4.65906,7.34223 3,11.5C 2.83333,325.833 2.66667,640.167 2.5,954.5C 2.66667,1268.83 2.83333,1583.17 3,1897.5C 5.02229,1902.02 8.18896,1905.35 12.5,1907.5C 8.16667,1907.5 3.83333,1907.5 -0.5,1907.5C -0.5,1272.17 -0.5,636.833 -0.5,1.5 Z"/></g>
<g><path style="opacity:1" fill="#43b02a" d="M 1671.5,2.5 C 1678.69,6.20902 1680.85,11.8757 1678,19.5C 1520.27,235.895 1361.77,451.729 1202.5,667C 1194.58,671.907 1186.91,671.574 1179.5,666C 1122.2,601.701 1064.54,537.701 1006.5,474C 997.457,469.741 989.291,470.908 982,477.5C 949.333,520.167 916.667,562.833 884,605.5C 879.753,612.305 879.42,619.305 883,626.5C 984.47,731.638 1086.3,836.471 1188.5,941C 1195.33,944.481 1202,944.147 1208.5,940C 1406.02,719.116 1603.19,497.949 1800,276.5C 1809.16,270.142 1816.49,271.808 1822,281.5C 1822.67,820.167 1822.67,1358.83 1822,1897.5C 1819.98,1902.02 1816.81,1905.35 1812.5,1907.5C 1212.5,1907.5 612.5,1907.5 12.5,1907.5C 8.18896,1905.35 5.02229,1902.02 3,1897.5C 2.83333,1583.17 2.66667,1268.83 2.5,954.5C 2.66667,640.167 2.83333,325.833 3,11.5C 4.65906,7.34223 7.49239,4.34223 11.5,2.5C 564.804,1.16703 1118.14,1.16703 1671.5,2.5 Z"/></g>
<g><path style="opacity:1" fill="#fefefe" d="M 1671.5,2.5 C 1722.66,1.5011 1774,1.16776 1825.5,1.5C 1825.5,636.833 1825.5,1272.17 1825.5,1907.5C 1821.17,1907.5 1816.83,1907.5 1812.5,1907.5C 1816.81,1905.35 1819.98,1902.02 1822,1897.5C 1822.67,1358.83 1822.67,820.167 1822,281.5C 1816.49,271.808 1809.16,270.142 1800,276.5C 1603.19,497.949 1406.02,719.116 1208.5,940C 1202,944.147 1195.33,944.481 1188.5,941C 1086.3,836.471 984.47,731.638 883,626.5C 879.42,619.305 879.753,612.305 884,605.5C 916.667,562.833 949.333,520.167 982,477.5C 989.291,470.908 997.457,469.741 1006.5,474C 1064.54,537.701 1122.2,601.701 1179.5,666C 1186.91,671.574 1194.58,671.907 1202.5,667C 1361.77,451.729 1520.27,235.895 1678,19.5C 1680.85,11.8757 1678.69,6.20902 1671.5,2.5 Z"/></g>
<g><path style="opacity:1" fill="#fefefe" d="M 480.5,886.5 C 598.5,880.143 703.834,912.976 796.5,985C 802.903,992.987 803.07,1001.15 797,1009.5C 772.216,1042.62 747.05,1075.45 721.5,1108C 714.978,1112.03 708.311,1112.36 701.5,1109C 621.859,1045.87 531.859,1022.87 431.5,1040C 409.814,1046.08 392.981,1058.58 381,1077.5C 364.778,1110.77 371.945,1137.6 402.5,1158C 422.479,1168.82 443.479,1177.15 465.5,1183C 504.69,1193.3 544.024,1202.96 583.5,1212C 625.626,1222.71 666.292,1237.37 705.5,1256C 793.987,1301.78 833.153,1374.61 823,1474.5C 812.504,1564.69 766.004,1628.53 683.5,1666C 641.318,1683.84 597.318,1694.17 551.5,1697C 422.135,1710.42 306.468,1677.42 204.5,1598C 199,1593.17 193.5,1588.33 188,1583.5C 182.788,1574.63 183.455,1566.29 190,1558.5C 212.912,1527.01 235.579,1495.34 258,1463.5C 265.149,1454.67 273.649,1453.17 283.5,1459C 363.582,1531.8 457.582,1561.47 565.5,1548C 595.427,1543.62 620.594,1530.46 641,1508.5C 655.289,1490.34 659.622,1470.01 654,1447.5C 649.084,1434.52 640.917,1424.02 629.5,1416C 609.663,1403.42 588.33,1394.09 565.5,1388C 520.599,1376.19 475.599,1364.86 430.5,1354C 388.649,1343.38 348.649,1328.05 310.5,1308C 233.391,1263.3 198.225,1196.13 205,1106.5C 212.619,1037.28 244.785,982.779 301.5,943C 343.073,915.248 388.74,897.915 438.5,891C 452.646,889.459 466.646,887.959 480.5,886.5 Z"/></g>
<g><path style="opacity:1" fill="#fefefe" d="M 1172.5,1085.5 C 1236.7,1080.06 1297.03,1092.56 1353.5,1123C 1417.02,1162.56 1459.52,1218.39 1481,1290.5C 1495.03,1337.7 1499.7,1385.7 1495,1434.5C 1493.06,1437.11 1490.56,1438.94 1487.5,1440C 1347.83,1440.33 1208.17,1440.67 1068.5,1441C 1067.07,1441.47 1065.9,1442.3 1065,1443.5C 1075.09,1500.6 1106.59,1541.1 1159.5,1565C 1186.22,1575.47 1213.89,1579.13 1242.5,1576C 1292.83,1571.78 1338.5,1555.11 1379.5,1526C 1387.23,1524.64 1393.4,1527.14 1398,1533.5C 1414.33,1557.5 1430.67,1581.5 1447,1605.5C 1451.41,1614.21 1449.91,1621.71 1442.5,1628C 1381.66,1670.61 1314,1693.95 1239.5,1698C 1136.48,1707.67 1049.31,1675.5 978,1601.5C 933.585,1550.97 908.585,1491.97 903,1424.5C 893.068,1320.6 925.568,1232.76 1000.5,1161C 1049.96,1118.11 1107.29,1092.94 1172.5,1085.5 Z"/></g>
<g><path style="opacity:1" fill="#43b02a" d="M 1184.5,1207.5 C 1215.76,1204.04 1245.76,1208.54 1274.5,1221C 1319.9,1245.3 1344.57,1283.14 1348.5,1334.5C 1347.97,1335.19 1347.31,1335.69 1346.5,1336C 1252.5,1336.67 1158.5,1336.67 1064.5,1336C 1064,1335.5 1063.5,1335 1063,1334.5C 1062.96,1320.99 1065.63,1307.99 1071,1295.5C 1093.26,1246.08 1131.09,1216.74 1184.5,1207.5 Z"/></g>
</svg>
